<?xml version="1.0" encoding="UTF-8"?>
<svg width="1998px" height="1123px" viewBox="0 0 1998 1123" version="1.1" xmlns="http://www.w3.org/2000/svg" xmlns:xlink="http://www.w3.org/1999/xlink" style="background: #FAFAFA;">
    <!-- Generator: Sketch 49.1 (51147) - http://www.bohemiancoding.com/sketch -->
    <title>Artboard</title>
    <desc>Created with Sketch.</desc>
    <defs>
        <rect id="path-1" x="0" y="0" width="414" height="736" rx="46"></rect>
        <filter x="-10.0%" y="-4.8%" width="120.5%" height="111.5%" filterUnits="objectBoundingBox" id="filter-3">
            <feMorphology radius="1" operator="dilate" in="SourceAlpha" result="shadowSpreadOuter1"></feMorphology>
            <feOffset dx="1" dy="7" in="shadowSpreadOuter1" result="shadowOffsetOuter1"></feOffset>
            <feGaussianBlur stdDeviation="12" in="shadowOffsetOuter1" result="shadowBlurOuter1"></feGaussianBlur>
            <feColorMatrix values="0 0 0 0 0   0 0 0 0 0   0 0 0 0 0  0 0 0 0.2 0" type="matrix" in="shadowBlurOuter1"></feColorMatrix>
        </filter>
        <rect id="path-4" x="0" y="0" width="414" height="736" rx="46"></rect>
        <filter x="-10.0%" y="-4.8%" width="120.5%" height="111.5%" filterUnits="objectBoundingBox" id="filter-6">
            <feMorphology radius="1" operator="dilate" in="SourceAlpha" result="shadowSpreadOuter1"></feMorphology>
            <feOffset dx="1" dy="7" in="shadowSpreadOuter1" result="shadowOffsetOuter1"></feOffset>
            <feGaussianBlur stdDeviation="12" in="shadowOffsetOuter1" result="shadowBlurOuter1"></feGaussianBlur>
            <feColorMatrix values="0 0 0 0 0   0 0 0 0 0   0 0 0 0 0  0 0 0 0.2 0" type="matrix" in="shadowBlurOuter1"></feColorMatrix>
        </filter>
        <rect id="path-7" x="41" y="135" width="332" height="352" rx="42"></rect>
        <filter x="-5.7%" y="-4.8%" width="111.4%" height="110.8%" filterUnits="objectBoundingBox" id="filter-8">
            <feOffset dx="0" dy="2" in="SourceAlpha" result="shadowOffsetOuter1"></feOffset>
            <feGaussianBlur stdDeviation="6" in="shadowOffsetOuter1" result="shadowBlurOuter1"></feGaussianBlur>
            <feColorMatrix values="0 0 0 0 0   0 0 0 0 0   0 0 0 0 0  0 0 0 0.24 0" type="matrix" in="shadowBlurOuter1"></feColorMatrix>
        </filter>
        <rect id="path-9" x="102" y="420" width="211" height="42" rx="21"></rect>
        <filter x="-1.9%" y="-9.5%" width="103.8%" height="119.0%" filterUnits="objectBoundingBox" id="filter-10">
            <feMorphology radius="1" operator="erode" in="SourceAlpha" result="shadowSpreadInner1"></feMorphology>
            <feGaussianBlur stdDeviation="2.5" in="shadowSpreadInner1" result="shadowBlurInner1"></feGaussianBlur>
            <feOffset dx="0" dy="2" in="shadowBlurInner1" result="shadowOffsetInner1"></feOffset>
            <feComposite in="shadowOffsetInner1" in2="SourceAlpha" operator="arithmetic" k2="-1" k3="1" result="shadowInnerInner1"></feComposite>
            <feColorMatrix values="0 0 0 0 1   0 0 0 0 1   0 0 0 0 1  0 0 0 0.5 0" type="matrix" in="shadowInnerInner1"></feColorMatrix>
        </filter>
    </defs>
    <g id="Artboard" stroke="none" stroke-width="1" fill="none" fill-rule="evenodd">
        <g id="Group-5" transform="translate(100.000000, 193.000000)">
            <g id="Group-2" transform="translate(251.000000, 0.000000)">
                <g id="Group">
                    <mask id="mask-2" fill="white">
                        <use xlink:href="#path-1"></use>
                    </mask>
                    <g id="Rectangle-15" fill="black" fill-opacity="1">
                        <use filter="url(#filter-3)" xlink:href="#path-1"></use>
                    </g>
                    <rect id="Rectangle-15-Copy" fill="#FFFFFF" mask="url(#mask-2)" x="0" y="0" width="414" height="736"></rect>
                    <rect id="Rectangle" stroke="#E0E0E0" stroke-width="8" mask="url(#mask-2)" x="47" y="640" width="320" height="59" rx="29.5"></rect>
                    <rect id="Rectangle-Copy" fill="#E0E0E0" mask="url(#mask-2)" x="43" y="103" width="211" height="42" rx="21"></rect>
                    <rect id="Rectangle-Copy-2" fill="#E0E0E0" mask="url(#mask-2)" x="102" y="208" width="211" height="30" rx="15"></rect>
                    <circle id="Oval" fill="#D8D8D8" mask="url(#mask-2)" cx="58" cy="223" r="15"></circle>
                    <rect id="Rectangle-Copy-3" fill="#E0E0E0" mask="url(#mask-2)" x="102" y="267" width="211" height="30" rx="15"></rect>
                    <circle id="Oval-Copy" fill="#D8D8D8" mask="url(#mask-2)" cx="58" cy="282" r="15"></circle>
                    <rect id="Rectangle-Copy-4" fill="#E0E0E0" mask="url(#mask-2)" x="102" y="326" width="211" height="30" rx="15"></rect>
                    <circle id="Oval-Copy-2" fill="#D8D8D8" mask="url(#mask-2)" cx="58" cy="341" r="15"></circle>
                </g>
                <g id="Group-Copy" transform="translate(869.000000, 0.000000)">
                    <mask id="mask-5" fill="white">
                        <use xlink:href="#path-4"></use>
                    </mask>
                    <g id="Rectangle-15" fill="black" fill-opacity="1">
                        <use filter="url(#filter-6)" xlink:href="#path-4"></use>
                    </g>
                    <rect id="Rectangle-15-Copy" fill="#FFFFFF" mask="url(#mask-5)" x="0" y="0" width="414" height="736"></rect>
                    <g id="Rectangle-16" mask="url(#mask-5)">
                        <use fill="black" fill-opacity="1" filter="url(#filter-8)" xlink:href="#path-7"></use>
                        <use fill="#FAFAFA" fill-rule="evenodd" xlink:href="#path-7"></use>
                    </g>
                    <g id="Rectangle-Copy" mask="url(#mask-5)">
                        <use fill="#ABABAB" fill-rule="evenodd" xlink:href="#path-9"></use>
                        <use fill="black" fill-opacity="1" filter="url(#filter-10)" xlink:href="#path-9"></use>
                    </g>
                </g>
                <rect id="Rectangle-Copy-3" fill="#E0E0E0" x="102" y="267" width="211" height="30" rx="15"></rect>
                <rect id="Rectangle-Copy-3" fill="#E0E0E0" x="971" y="267" width="211" height="21" rx="10.5"></rect>
                <rect id="Rectangle-Copy-5" fill="#E0E0E0" opacity="0.85" x="976" y="238" width="202" height="18" rx="9"></rect>
                <rect id="Rectangle-Copy-8" fill="#E0E0E0" opacity="0.85" x="976" y="299" width="202" height="18" rx="9"></rect>
                <rect id="Rectangle-Copy-6" fill="#E0E0E0" opacity="0.7" x="988" y="212" width="179" height="15" rx="7.5"></rect>
                <rect id="Rectangle-Copy-9" fill="#E0E0E0" opacity="0.7" x="988" y="328" width="179" height="15" rx="7.5"></rect>
                <rect id="Rectangle-Copy-7" fill="#E0E0E0" opacity="0.55" x="1002" y="193" width="152" height="12" rx="6"></rect>
                <rect id="Rectangle-Copy-10" fill="#E0E0E0" opacity="0.55" x="1002" y="350" width="152" height="12" rx="6"></rect>
                <rect id="Rectangle-2" fill="#373A40" x="449" y="664" width="191" height="5"></rect>
                <rect id="Rectangle-2-Copy-2" fill="#373A40" x="636" y="366" width="187" height="5"></rect>
                <rect id="Rectangle-2-Copy" fill="#373A40" transform="translate(637.500000, 517.500000) rotate(-90.000000) translate(-637.500000, -517.500000) " x="486" y="515" width="303" height="5"></rect>
                <polygon id="Triangle" fill="#0A80F0" points="857 368 817 388 817 348"></polygon>
                <circle id="Oval-3" fill="#0A80F0" cx="446" cy="666" r="20"></circle>
            </g>
            <path d="M1595,130 L1600,130 L1600,309 L1646,309 L1646,314 L1600,314 L1600,492 L1595,492 L1555,492 L1555,487 L1595,487 L1595,135 L1555,135 L1555,130 L1595,130 Z" id="Combined-Shape" fill="#373A40"></path>
            <rect id="Combined-Shape-Copy" fill="#373A40" x="190" y="701" width="40" height="5"></rect>
            <g id="Group-3" transform="translate(139.000000, 188.000000)" fill="#373A40">
                <path d="M51,183 L46,183 L46,0 L51,0 L91,0 L91,5 L51,5 L51,178 L91,178 L91,183 L51,183 Z" id="Combined-Shape"></path>
                <rect id="Rectangle-18" x="0" y="89" width="50" height="5"></rect>
            </g>
            <text id="Task-List" font-family="MyriadPro-Bold, Myriad Pro" font-size="42" font-weight="bold" letter-spacing="2.6099999" fill="#0275E8">
                <tspan x="23.5740002" y="269">Task </tspan>
                <tspan x="31.9740002" y="312">List</tspan>
            </text>
            <text id="Text-Input" font-family="MyriadPro-Bold, Myriad Pro" font-size="42" font-weight="bold" letter-spacing="2.6099999" fill="#0275E8">
                <tspan x="23.7580002" y="659">Text </tspan>
                <tspan x="11.1130003" y="702">Input</tspan>
            </text>
            <text id="Time-Picker" font-family="MyriadPro-Bold, Myriad Pro" font-size="42" font-weight="bold" letter-spacing="2.6099999" fill="#0275E8">
                <tspan x="1678.353" y="301">Time </tspan>
                <tspan x="1665.582" y="344">Picke</tspan>
                <tspan x="1777.458" y="344">r</tspan>
            </text>
            <g id="Group-4" transform="translate(139.000000, 633.000000)" fill="#373A40">
                <rect id="Rectangle-17-Copy" x="51" y="0" width="40" height="5"></rect>
                <rect id="Rectangle-18-Copy" x="0" y="34" width="50" height="5"></rect>
                <rect id="Rectangle-2-Copy" transform="translate(49.500000, 36.500000) rotate(-90.000000) translate(-49.500000, -36.500000) " x="13" y="34" width="73" height="5"></rect>
            </g>
        </g>
    </g>
</svg>